<?xml version="1.0" encoding="iso-8859-1"?>
<!-- Generator: Adobe Illustrator 19.0.0, SVG Export Plug-In . SVG Version: 6.00 Build 0)  -->
<svg version="1.1" id="Layer_1" xmlns="http://www.w3.org/2000/svg" xmlns:xlink="http://www.w3.org/1999/xlink" x="0px" y="0px"
	 viewBox="0 0 512.007 512.007" style="enable-background:new 0 0 512.007 512.007;" xml:space="preserve">
<g transform="translate(0 -1)">
	<g>
		<g>
			<path d="M443.327,69.741c-8.341-8.341-21.824-8.341-30.165,0c-8.341,8.32-8.341,21.824,0,30.165
				c74.859,74.859,74.859,196.672,0,271.552c-8.341,8.32-8.341,21.845,0,30.165c4.16,4.16,9.621,6.251,15.083,6.251
				s10.923-2.091,15.083-6.251C534.826,310.125,534.826,161.24,443.327,69.741z"/>
			<path d="M382.973,130.085c-8.341-8.341-21.824-8.341-30.165,0c-8.341,8.341-8.341,21.845,0,30.165
				c20.139,20.139,31.253,46.933,31.253,75.435c0,28.48-11.115,55.275-31.253,75.413c-8.341,8.32-8.341,21.845,0,30.165
				c4.16,4.181,9.621,6.251,15.083,6.251s10.923-2.069,15.083-6.251c28.203-28.203,43.755-65.707,43.755-105.579
				C426.727,195.791,411.175,158.287,382.973,130.085z"/>
			<path d="M308.494,3.375c-7.147-3.669-15.659-3.051-22.165,1.6L170.723,87.557v84.117c0,11.776-9.536,21.333-21.333,21.333
				c-11.797,0-21.333-9.557-21.333-21.333v-64H21.39c-11.797,0-21.333,9.557-21.333,21.333v256c0,11.776,9.536,21.333,21.333,21.333
				h106.667v-64c0-11.776,9.536-21.333,21.333-21.333c11.797,0,21.333,9.557,21.333,21.333v84.117l115.605,82.581
				c3.691,2.624,8.021,3.968,12.395,3.968c3.328,0,6.677-0.768,9.771-2.368c7.104-3.648,11.563-10.965,11.563-18.965V22.341
				C320.056,14.362,315.598,7.023,308.494,3.375z"/>
		</g>
	</g>
</g>
<g>
</g>
<g>
</g>
<g>
</g>
<g>
</g>
<g>
</g>
<g>
</g>
<g>
</g>
<g>
</g>
<g>
</g>
<g>
</g>
<g>
</g>
<g>
</g>
<g>
</g>
<g>
</g>
<g>
</g>
</svg>
